<svg xmlns="http://www.w3.org/2000/svg" xmlns:xlink="http://www.w3.org/1999/xlink" version="1.1" x="0px" y="0px" viewBox="0 0 100 125" style="enable-background:new 0 0 100 100;" xml:space="preserve"><g><path d="M49.965,14.5c-19.575,0-35.5,15.925-35.5,35.5s15.925,35.5,35.5,35.5s35.5-15.925,35.5-35.5S69.54,14.5,49.965,14.5z    M49.965,83.5c-18.472,0-33.5-15.028-33.5-33.5s15.028-33.5,33.5-33.5s33.5,15.028,33.5,33.5S68.437,83.5,49.965,83.5z"/><path d="M63.401,36.265c-0.391-0.391-1.023-0.391-1.414,0L49.965,48.286L37.944,36.265c-0.391-0.391-1.023-0.391-1.414,0   s-0.391,1.023,0,1.414L48.551,49.7L36.53,61.721c-0.391,0.391-0.391,1.023,0,1.414c0.195,0.195,0.451,0.293,0.707,0.293   s0.512-0.098,0.707-0.293l12.021-12.021l12.021,12.021c0.195,0.195,0.451,0.293,0.707,0.293s0.512-0.098,0.707-0.293   c0.391-0.391,0.391-1.023,0-1.414L51.38,49.7l12.021-12.021C63.791,37.289,63.791,36.656,63.401,36.265z"/></g><text x="0" y="115" fill="#000000" font-size="5px" font-weight="bold" font-family="'Helvetica Neue', Helvetica, Arial-Unicode, Arial, Sans-serif">Created by Tong Chalita</text><text x="0" y="120" fill="#000000" font-size="5px" font-weight="bold" font-family="'Helvetica Neue', Helvetica, Arial-Unicode, Arial, Sans-serif">from the Noun Project</text></svg>